<svg id="_x31__x2C_5" enable-background="new 0 0 24 24" height="512" viewBox="0 0 24 24" width="512" xmlns="http://www.w3.org/2000/svg"><path d="m16.25 11c-.414 0-.75-.336-.75-.75v-4.322c0-.438-.213-.824-.584-1.058-.37-.234-.811-.259-1.207-.069l-.276.133c-.497.223-1.045.178-1.482-.106-.438-.285-.7-.767-.7-1.29l-1.501-.038c-.689 0-1.25.561-1.25 1.25v5.5c0 .414-.336.75-.75.75s-.75-.336-.75-.75v-5.5c0-1.517 1.233-2.75 2.75-2.75h1.462c.848 0 1.538.69 1.538 1.538l.31-.089c.859-.412 1.851-.355 2.655.152s1.285 1.376 1.285 2.327v4.322c0 .414-.336.75-.75.75z"/><path d="m8.42 23c-.141 0-.282-.011-.423-.034l-1.833-.292c-1.254-.2-2.164-1.24-2.164-2.473v-2.024c0-.326.211-.615.521-.714 1.922-.613 4.035-.613 5.957 0 .311.099.522.388.522.714v2.317c0 .72-.319 1.405-.877 1.881-.477.406-1.08.625-1.703.625zm-.187-1.515c.335.052.667-.039.916-.251.227-.193.351-.456.351-.74v-1.75c-1.307-.322-2.693-.322-4 0v1.457c0 .491.379.908.9.991z"/><path d="m4.75 19.5h-2c-.414 0-.75-.336-.75-.75s.336-.75.75-.75h2c.414 0 .75.336.75.75s-.336.75-.75.75z"/><path d="m15.58 23c-.623 0-1.227-.219-1.703-.625-.558-.476-.877-1.161-.877-1.881v-2.317c0-.326.211-.615.521-.714 1.922-.613 4.035-.613 5.957 0 .311.099.522.388.522.714v2.024c0 1.233-.91 2.272-2.164 2.473l-1.833.292c-.141.023-.282.034-.423.034zm.305-.774h.01zm-1.385-3.482v1.75c0 .284.124.547.351.74.248.212.581.303.916.251l1.833-.292c.521-.083.9-.5.9-.991v-1.457c-1.307-.323-2.693-.323-4-.001z"/><path d="m21.25 19.25h-1.75c-.414 0-.75-.336-.75-.75s.336-.75.75-.75h1.75c.414 0 .75.336.75.75s-.336.75-.75.75z"/><path d="m13.75 19.5h-3.5c-.414 0-.75-.336-.75-.75s.336-.75.75-.75h3.5c.414 0 .75.336.75.75s-.336.75-.75.75z"/><path d="m12 15c-5.963 0-12-1.374-12-4 0-2.572 5.359-3.476 7.663-3.745.403-.046.783.246.832.658.048.411-.247.784-.658.832-4.479.523-6.337 1.727-6.337 2.255 0 .849 3.706 2.5 10.5 2.5s10.5-1.651 10.5-2.5c0-.528-1.858-1.732-6.337-2.255-.411-.048-.706-.421-.658-.832.048-.412.427-.702.832-.658 2.304.269 7.663 1.173 7.663 3.745 0 2.626-6.037 4-12 4z"/></svg>